# xmcd CD database file
# Copyright (C) 1995 Ti Kan
#
# Track frame offsets:
#	200
#	17380
#	29690
#	42355
#	56030
#	64112
#	79807
#	93605
#	104407
#	119340
#	134147
#	143217
#
# Disc length: 2041 seconds
#
# Revision: 1
# Processed by: cddbd v1.4b41PL1 Copyright (c) Steve Scherf et al.
# Submitted via: NotifyCDPlayer(CDDB) 1.05
#
DISCID=af07f70c
DTITLE=Doyle Lawson and QuickSilver - I Heard the Angels Singing
DYEAR=1900
DGENRE=
TTITLE0=The Holy City
TTITLE1=Stormy Waters
TTITLE2=The Little Mountain Church House
TTITLE3=In the Shelter of His Arms
TTITLE4=I Heard the Angels Singing
TTITLE5=He's My Guide
TTITLE6=The Little White Church
TTITLE7=The City Where Comes No Strife
TTITLE8=Rock of Ages, Hide Thou Me
TTITLE9=I Won't Have To Cross Jordan Alone
TTITLE10=That New Jerusalem
TTITLE11=That Home Far Away
EXTD=
EXTT0=
EXTT1=
EXTT2=
EXTT3=
EXTT4=
EXTT5=
EXTT6=
EXTT7=
EXTT8=
EXTT9=
EXTT10=
EXTT11=
PLAYORDER=
